<?xml version="1.0" standalone="no"?>
<!DOCTYPE svg PUBLIC "-//W3C//DTD SVG 20010904//EN"
 "http://www.w3.org/TR/2001/REC-SVG-20010904/DTD/svg10.dtd">
<svg version="1.0" xmlns="http://www.w3.org/2000/svg"
 width="457.000000pt" height="277.000000pt" viewBox="0 0 457.000000 277.000000"
 preserveAspectRatio="xMidYMid meet">
<metadata>
Created by potrace 1.16, written by Peter Selinger 2001-2019
</metadata>
<g transform="translate(0.000000,277.000000) scale(0.100000,-0.100000)"
fill="#000000" stroke="none">
<path d="M1352 1357 c-211 -211 -380 -386 -376 -390 4 -4 183 -7 398 -7 l391
0 190 190 190 190 -200 200 c-110 110 -202 200 -205 200 -3 0 -177 -172 -388
-383z"/>
<path d="M1460 285 l0 -285 540 0 c427 0 540 3 540 13 0 6 -123 135 -273 285
l-272 272 -268 0 -267 0 0 -285z"/>
</g>
</svg>
